<?xml version="1.0" encoding="utf-8"?>
<svg viewBox="0 0 215 63" fill="none" xmlns="http://www.w3.org/2000/svg">
    <path d="M28.5 18.25C28.5 26.1201 22.1201 32.5 14.25 32.5H0V18.25C0 10.3799 6.37993 4 14.25 4C22.1201 4 28.5 10.3799 28.5 18.25Z"
          fill="#00CB8D"/>
    <path d="M57 18.25C57 10.3799 50.6201 4 42.75 4H28.5V18.25C28.5 26.1201 34.8799 32.5 42.75 32.5C50.6201 32.5 57 26.1201 57 18.25Z"
          fill="#1F4CED"/>
    <path d="M28.5 46.75C28.5 38.8799 34.8799 32.5 42.75 32.5H57V46.75C57 54.6201 50.6201 61 42.75 61C34.8799 61 28.5 54.6201 28.5 46.75Z"
          fill="#FFCF24"/>
    <path d="M0 46.75C0 54.6201 6.37993 61 14.25 61H28.5V46.75C28.5 38.8799 22.1201 32.5 14.25 32.5C6.37993 32.5 0 38.8799 0 46.75Z"
          fill="#C9C9C9"/>
</svg>