<!DOCTYPE svg PUBLIC "-//W3C//DTD SVG 1.1//EN" "http://www.w3.org/Graphics/SVG/1.1/DTD/svg11.dtd">

<!-- Uploaded to: SVG Repo, www.svgrepo.com, Transformed by: SVG Repo Mixer Tools -->
<svg width="800px" height="800px" viewBox="0 0 128 128" xmlns="http://www.w3.org/2000/svg"
     xmlns:xlink="http://www.w3.org/1999/xlink" aria-hidden="true" role="img" class="iconify iconify--noto"
     preserveAspectRatio="xMidYMid meet" fill="#000000">

    <g id="SVGRepo_bgCarrier" stroke-width="0"/>

    <g id="SVGRepo_tracerCarrier" stroke-linecap="round" stroke-linejoin="round"/>

    <g id="SVGRepo_iconCarrier">

        <path d="M22.46 58.56L3.65 65.78s.36 56.07.29 56.86s.21 1.5 1.07 1.57c.86.07 116.72 0 117.81 0c1.09 0 1.41-.58 1.41-1.41V66.11l-58.37-9.37l-43.4 1.82z"
              fill="#f7b03c"/>

        <path fill="#f9dfb1" d="M7.08 60.8v60.53h24.13V60.9z"/>

        <path fill="#f9dfb1" d="M97.26 62.36v58.29H121V61.29z"/>

        <path d="M10.41 89.36v19.6c0 .51.05 1.32 1.01 1.32h15.74c.5 0 .96-.46.96-1.42V89.31l-17.71.05z" fill="#6ba4ae"/>

        <path fill="#a7d0d6" d="M18.15 90.61v19.67h2.08V89.7z"/>

        <path d="M10.36 82.49c-.81-.05-1.21.71-1.42 1.47s-2.08 7.29-2.18 8.45c-.09 1.02.4 1.11 2.18 1.06c1.77-.05 20.7.15 21.72.1c.92-.05 1.57-.3 1.06-2.33c-.31-1.23-1.77-6.38-2.02-7.24c-.28-.97-.56-1.52-1.32-1.52c-.66.01-17.21.06-18.02.01z"
              fill="#024fac"/>

        <path d="M100.48 90.04s-.11 18.8-.11 19.42c0 .62.11 1.3 1.19 1.42c1.08.11 15.4.23 15.97.23c.57 0 .74-.85.74-1.64c0-.79.06-20.21.06-20.21l-17.85.78z"
              fill="#6ba4ae"/>

        <path fill="#a7d0d6" d="M108.47 88.58l-.06 22.41h2.61V88.87z"/>

        <path d="M100.83 82.3c-.81-.05-1.21.71-1.42 1.47s-2.33 6.99-2.43 8.15c-.09 1.02.66 1.14 2.43 1.19c1.93.06 20.19.09 21.2.04c.92-.05 1.21-.76.6-2.76c-.41-1.33-2.24-5.76-2.49-6.63c-.28-.97-.56-1.52-1.32-1.52c-.66.01-15.76.11-16.57.06z"
              fill="#024fac"/>

        <path fill="#f9dfb1" d="M36.28 53.27l-.45 67.63l56.74-.11l.78-68.3l-26.93-25.81z"/>

        <path fill="#866054" d="M35.67 119.5v4.69h56.91l.07-4.53z"/>

        <path fill="#866054" d="M36.09 75.54v5.9l56.94.07V75.9z"/>

        <path d="M3.65 65.78h32.59V55.75l28.33-25.44L93.31 55.7l-.1 10.75l31.02-.33s-3.01-8.35-3.01-8.96s-.31-1.3-2.68-1.38s-24.19 0-24.19 0s5.43-4.74 5.36-5.05c-.08-.31-30.93-27.89-31.46-28.35c-.54-.46-2-2.07-3.39-2.07c-1.15 0-2.74 1.54-3.81 2.53S29.21 51.33 30.6 50.08c.17-.15 4.47 5.16 4.47 5.16s-26.87-.31-27.18-.15c-.3.15-4.24 10.69-4.24 10.69z"
              fill="#866054"/>

        <path d="M53.52 124.29s.23-39.04.23-39.59c0-.56.15-1.04.77-1.04s19.76.08 20.22.08s.61.48.61 1.12c0 .64-.08 39.27-.08 39.27l-21.75.16z"
              fill="#395661"/>

        <path fill="#6ba4ae" d="M56.97 87l-.23 30.32h15.32L71.98 87z"/>

        <path d="M68.75 104.12c-.3 0-.44.91-.48 1.87c-.04.96.22 1.83.35 1.83h5.48c.17 0 .39-.91.39-1.7c0-1.26-.44-1.96-.57-1.96s-5.17-.04-5.17-.04z"
              fill="#e0a614"/>
    </g>
    <g transform="translate(46,52.5)" >
        <path fill="#EC9611" d="M 27.48 19.221 L 27.32 18.181 Q 28.26 18.001 28.99 17.721 A 1.92 1.92 0 0 0 29.292 17.576 Q 29.443 17.486 29.54 17.378 A 0.662 0.662 0 0 0 29.72 16.921 A 0.665 0.665 0 0 0 29.705 16.775 Q 29.684 16.683 29.635 16.616 A 0.364 0.364 0 0 0 29.56 16.541 A 0.588 0.588 0 0 0 29.316 16.435 A 0.816 0.816 0 0 0 29.16 16.421 Q 28.96 16.421 28.74 16.501 A 1.638 1.638 0 0 0 28.523 16.597 A 1.292 1.292 0 0 0 28.36 16.701 L 27.62 16.381 L 28.1 14.341 A 5.382 5.382 0 0 1 26.489 14.105 A 4.843 4.843 0 0 1 25.7 13.781 Q 24.62 13.221 23.99 12.171 Q 23.36 11.121 23.36 9.701 Q 23.36 8.321 24 7.171 Q 24.64 6.021 25.79 5.341 Q 26.94 4.661 28.38 4.661 A 6.471 6.471 0 0 1 29.302 4.723 Q 29.894 4.808 30.38 5.011 A 3.805 3.805 0 0 1 30.984 5.324 Q 31.391 5.588 31.65 5.931 A 2.209 2.209 0 0 1 31.966 6.499 A 1.847 1.847 0 0 1 32.08 7.141 A 1.548 1.548 0 0 1 31.996 7.66 A 1.362 1.362 0 0 1 31.72 8.121 A 1.186 1.186 0 0 1 30.986 8.503 A 1.696 1.696 0 0 1 30.74 8.521 A 1.805 1.805 0 0 1 30.381 8.487 Q 30.17 8.444 30.009 8.346 A 0.919 0.919 0 0 1 29.79 8.161 Q 29.48 7.801 29.48 7.341 A 1.279 1.279 0 0 1 29.495 7.154 Q 29.508 7.065 29.533 6.968 A 2.144 2.144 0 0 1 29.54 6.941 A 1.879 1.879 0 0 1 29.641 6.657 A 1.62 1.62 0 0 1 29.7 6.541 Q 29.52 6.201 29.15 6.071 Q 28.78 5.941 28.4 5.941 A 1.864 1.864 0 0 0 26.969 6.561 A 2.441 2.441 0 0 0 26.79 6.781 Q 26.324 7.422 26.214 8.473 A 6.614 6.614 0 0 0 26.18 9.161 A 6.25 6.25 0 0 0 26.266 10.226 Q 26.371 10.832 26.604 11.327 A 3.507 3.507 0 0 0 26.79 11.671 Q 27.4 12.661 28.72 12.721 Q 29.413 12.738 30.091 12.455 A 3.946 3.946 0 0 0 30.3 12.361 Q 31.08 11.981 31.62 11.321 L 32.5 12.141 A 6.363 6.363 0 0 1 31.355 13.289 A 4.898 4.898 0 0 1 29.64 14.141 L 29.18 15.421 L 29.2 15.421 A 1.893 1.893 0 0 1 29.368 15.347 Q 29.558 15.274 29.823 15.209 A 5.944 5.944 0 0 1 29.86 15.201 A 4.723 4.723 0 0 1 30.132 15.144 Q 30.262 15.121 30.374 15.11 A 1.964 1.964 0 0 1 30.56 15.101 A 2.108 2.108 0 0 1 31.018 15.162 Q 31.37 15.252 31.62 15.471 A 1.12 1.12 0 0 1 31.964 16.037 Q 32.013 16.219 32.019 16.437 A 2.235 2.235 0 0 1 32.02 16.501 Q 32.02 17.72 30.621 18.35 A 2.469 2.469 0 0 1 30.62 18.351 Q 29.22 18.981 27.48 19.221 Z M 5.76 8.981 L 4.98 9.001 L 4.32 8.981 L 4.32 10.741 A 26.701 26.701 0 0 1 4.312 11.408 Q 4.296 12.048 4.247 12.497 A 7.357 7.357 0 0 1 4.24 12.561 A 11.111 11.111 0 0 1 4.681 12.529 Q 5.176 12.502 5.844 12.501 A 36.405 36.405 0 0 1 5.94 12.501 L 5.94 14.041 L 0 14.041 L 0 12.721 Q 0.475 12.703 0.749 12.616 A 1.146 1.146 0 0 0 0.82 12.591 A 0.697 0.697 0 0 0 1.104 12.38 Q 1.176 12.293 1.234 12.176 A 1.393 1.393 0 0 0 1.26 12.121 A 1.373 1.373 0 0 0 1.337 11.885 Q 1.4 11.625 1.415 11.241 A 6.577 6.577 0 0 0 1.42 10.981 L 1.42 3.321 A 25.911 25.911 0 0 1 1.428 2.663 Q 1.444 2.033 1.493 1.584 A 7.474 7.474 0 0 1 1.5 1.521 L 0 1.581 L 0 0.041 L 5.68 0.001 A 13.083 13.083 0 0 1 5.777 0 Q 8.408 0 9.91 1.071 Q 11.44 2.161 11.44 4.381 Q 11.44 5.521 10.8 6.561 A 4.327 4.327 0 0 1 9.684 7.762 A 5.748 5.748 0 0 1 8.88 8.261 Q 7.7 8.869 6.044 8.967 A 10.6 10.6 0 0 1 5.76 8.981 Z M 4.32 2.981 L 4.32 7.481 A 5.944 5.944 0 0 0 4.868 7.532 A 7.159 7.159 0 0 0 5.22 7.541 A 5.134 5.134 0 0 0 6.084 7.473 Q 6.548 7.393 6.911 7.221 A 2.191 2.191 0 0 0 7.59 6.731 Q 8.207 6.064 8.316 4.89 A 5.712 5.712 0 0 0 8.34 4.361 Q 8.34 1.839 6.396 1.466 A 3.901 3.901 0 0 0 5.66 1.401 A 2.59 2.59 0 0 0 5.296 1.424 Q 5.111 1.451 4.964 1.506 A 0.957 0.957 0 0 0 4.64 1.701 A 0.738 0.738 0 0 0 4.475 1.946 Q 4.366 2.193 4.334 2.601 A 4.795 4.795 0 0 0 4.32 2.981 Z M 37.14 4.941 L 39.58 4.941 L 39.58 6.341 L 37.14 6.401 L 37.12 10.881 A 3.999 3.999 0 0 0 37.161 11.479 Q 37.279 12.257 37.741 12.514 A 1.091 1.091 0 0 0 38.28 12.641 A 1.667 1.667 0 0 0 39.152 12.382 Q 39.607 12.108 40.04 11.541 L 40.96 12.361 Q 40.392 13.155 39.821 13.592 A 2.82 2.82 0 0 1 39.15 13.981 Q 38.24 14.341 37.38 14.341 Q 34.538 14.341 34.388 11.199 A 7.544 7.544 0 0 1 34.38 10.841 L 34.42 6.461 L 33.1 6.461 L 33.1 4.941 A 2.184 2.184 0 0 0 34.409 4.501 A 3.02 3.02 0 0 0 34.74 4.221 A 4.421 4.421 0 0 0 35.312 3.547 A 3.309 3.309 0 0 0 35.74 2.681 L 37.16 2.681 L 37.14 4.941 Z M 18.804 4.861 A 4.982 4.982 0 0 1 19.75 5.231 Q 20.86 5.801 21.49 6.861 A 4.461 4.461 0 0 1 22.064 8.529 A 5.751 5.751 0 0 1 22.12 9.341 A 6.248 6.248 0 0 1 21.977 10.707 A 4.895 4.895 0 0 1 21.51 11.971 Q 20.9 13.101 19.81 13.721 A 4.756 4.756 0 0 1 17.918 14.311 A 5.899 5.899 0 0 1 17.32 14.341 A 5.909 5.909 0 0 1 15.795 14.15 A 5.051 5.051 0 0 1 14.8 13.771 Q 13.68 13.201 13.04 12.151 A 4.367 4.367 0 0 1 12.445 10.42 A 5.572 5.572 0 0 1 12.4 9.701 A 5.648 5.648 0 0 1 12.586 8.224 A 4.732 4.732 0 0 1 13.06 7.081 Q 13.72 5.941 14.83 5.301 Q 15.94 4.661 17.26 4.661 A 5.75 5.75 0 0 1 18.804 4.861 Z M 17.26 5.941 A 1.858 1.858 0 0 0 16.586 6.057 Q 16.031 6.271 15.72 6.881 A 4.133 4.133 0 0 0 15.364 7.912 Q 15.24 8.5 15.24 9.201 Q 15.24 10.781 15.76 11.911 A 2.424 2.424 0 0 0 16.107 12.469 A 1.567 1.567 0 0 0 17.36 13.041 A 1.571 1.571 0 0 0 18.863 12.079 Q 19.213 11.366 19.254 10.122 A 10.31 10.31 0 0 0 19.26 9.781 A 8.522 8.522 0 0 0 19.168 8.496 Q 19.065 7.819 18.845 7.243 A 5.144 5.144 0 0 0 18.78 7.081 A 2.443 2.443 0 0 0 18.476 6.542 Q 18.017 5.943 17.266 5.941 A 1.89 1.89 0 0 0 17.26 5.941 Z"/>
    </g>
</svg>